<?xml version="1.0" encoding="UTF-8"?>
<svg id="Vrstva_2" data-name="Vrstva 2" xmlns="http://www.w3.org/2000/svg" viewBox="0 0 436.7 383.87">
  <defs>
    <style>
      .cls-1, .cls-2 {
        fill: #1d1d1b;
        stroke: #1d1d1b;
        stroke-miterlimit: 10;
      }

      .cls-2 {
        stroke-width: 1.04px;
      }
    </style>
  </defs>
  <path class="cls-2" d="M42.07,375.89l-10.54-28.37-14.44-55.11S5.4,165.2,6.44,159.47l25.7-55.56,44.41-27,26.8-1.08c1.88.78,19.88,11.93,20.74,12.72,1.13,1.05,12.14,20.45,12.14,20.45-1.59,7.64-5.69,15.71-6.86,17.16-2.62,3.25-17.03,7.16-17.03,7.16,0,0,10.63-13.28,11.36-15.46,1.29-3.87-13.14-18.82-13.14-18.82,0,0-19.09-3.53-29.18-2.76-4.53.35-31.61,25.13-31.61,25.13l-19.38,38.53c-.33,1.75-2.09,56.3-1.69,74.13.29,12.86,2.85,51.06,3.61,58.76l9.76,83.08Z"/>
  <path class="cls-1" d="M47.59,43.64c5.87-2.59,43.9-14.57,43.9-14.57l28.13-.47c16.03,8.66,29.51,25.06,39.76,37.84,11.15,13.89,14.43,27,14.43,27v23.33c-18.03,18.87-28.72,25.58-28.72,25.58l-24.22,1.17c5.35,3.91,12.61,7.07,17.58,9.2,2.74,1.17,21.53-.94,21.53-.94,21.82-16.09,25.58-21.96,33.06-31.93,5.28-7.04,9.02-22.07,8.77-22.86-6.31-19.67-16.73-42.79-23.12-52.41-4.07-6.12-48.25-33.93-50.99-33.9-2.55.03-19.2-.41-22.97.31-3.29.63-61.7,21.78-64.16,23.46-1.01.69-20.6,38.75-20.54,38.93l-2.35,15.65c.53-.86,8.53-16.63,9.81-19.38l20.13-26.01Z"/>
  <path class="cls-1" d="M107.83,148.15l-8.63,10.68-1.83,14.45s8.74,16.48,9.23,17.02c.71.79,18.72,12.52,19.47,12.91,4.04,2.12,46.73,3.38,50.48,2.61,10.02-2.06,90.92-57.67,90.92-57.67,2.72-1.39,44.55-16.68,111.66-23.53,0,0,42.98-25.84,47.35-30.71,0,0-43.1,13.28-53.61,16.82-7.77,2.61-64.76,3.52-64.76,3.52,0,0-26.12-7.49-35.61-12.79,0,0-40.3,41.33-63.25,57.24,0,0-26.94,17.66-51.66,24.76l-26.82-.37s-16.55-9.12-20.33-15.12c-.54-.86-2.22-13.04-2.59-19.83Z"/>
</svg>